<svg width="429" height="96" viewBox="0 0 429 96" fill="none" xmlns="http://www.w3.org/2000/svg">
<g clip-path="url(#clip0_7674_7359)">
<path d="M89.5211 50.7541H57.3806C53.7578 50.7541 50.8052 53.6972 50.8052 57.3229V89.4312C50.8052 93.0503 53.7512 96 57.3806 96H89.5211C93.1438 96 96.0965 93.057 96.0965 89.4312V57.3229C96.0965 53.7038 93.1505 50.7541 89.5211 50.7541ZM80.776 82.0471C80.776 82.2592 80.6897 82.4647 80.5438 82.6171C80.3912 82.7696 80.1921 82.8558 79.9798 82.8558C77.4916 82.8558 69.1645 82.8425 67.174 82.8425C66.6631 82.8425 66.2318 82.405 66.2318 81.8814V64.8529C66.2318 64.3226 66.6498 63.905 67.174 63.905C69.1247 63.905 77.266 63.8984 79.721 63.8917C79.9333 63.8917 80.139 63.9779 80.2916 64.1237C80.4442 64.2762 80.5239 64.475 80.5239 64.6938V65.688C80.5239 66.1321 80.1656 66.4901 79.721 66.4901H69.1048V72.005L79.4755 71.9917C79.9134 71.9917 80.2784 72.3496 80.2784 72.7871V73.7814C80.2916 74.0001 80.2054 74.199 80.0528 74.3514C79.9002 74.5039 79.7011 74.5901 79.4821 74.5901L69.0982 74.6033V80.2309H79.9798C80.4243 80.2309 80.7826 80.5888 80.7826 81.0329V82.0272L80.776 82.0471Z" fill="white"/>
<path d="M89.5211 0H57.3806C53.7578 0 50.8052 2.94304 50.8052 6.5688V38.6771C50.8052 42.3028 53.7512 45.2459 57.3806 45.2459H89.5211C93.1438 45.2459 96.0965 42.3028 96.0965 38.6771V6.5688C96.0965 2.94304 93.1505 0 89.5211 0ZM82.8262 26.6199C82.3286 27.8395 81.612 28.9266 80.6964 29.8413C79.794 30.7428 78.7191 31.4454 77.4982 31.9426C76.2774 32.4397 74.9238 32.6916 73.4973 32.6916C72.0707 32.6916 70.6773 32.4397 69.4366 31.9426C68.2091 31.4454 67.1276 30.7362 66.2053 29.8413C65.2896 28.9266 64.5598 27.8395 64.0422 26.6133C63.5446 25.387 63.2925 24.0414 63.2925 22.6097C63.2925 21.1779 63.5446 19.8058 64.0422 18.5796C64.5598 17.3533 65.2896 16.2795 66.2053 15.3847C67.1209 14.4832 68.2091 13.7806 69.4366 13.2834C70.6773 12.7863 72.0442 12.5344 73.4973 12.5344C74.9504 12.5344 76.2774 12.7863 77.4982 13.2834C78.7191 13.7806 79.8006 14.4898 80.6964 15.3847C81.612 16.2795 82.3352 17.3599 82.8262 18.5796C83.3438 19.7992 83.6026 21.158 83.6026 22.6097C83.6026 24.0613 83.3438 25.387 82.8262 26.6133V26.6199Z" fill="white"/>
<path d="M77.0935 16.4054C76.0518 15.789 74.8376 15.4774 73.4906 15.4774C72.1437 15.4774 70.9229 15.789 69.8612 16.4054C68.7996 17.0219 67.9437 17.8703 67.3266 18.9375C66.7096 19.9981 66.3977 21.2376 66.3977 22.6229C66.3977 24.0083 66.7096 25.2279 67.3266 26.3084C67.9437 27.3689 68.793 28.224 69.8612 28.8404C70.9229 29.4569 72.1504 29.7684 73.4906 29.7684C74.8309 29.7684 76.0452 29.4569 77.0935 28.8404C78.1352 28.224 78.9712 27.3755 79.5684 26.3084C80.1855 25.2279 80.4973 23.9884 80.4973 22.6229C80.4973 21.2575 80.1855 19.9981 79.5684 18.9375C78.9712 17.8703 78.1352 17.0219 77.0935 16.4054Z" fill="white"/>
<path d="M38.7159 0H6.5754C2.94599 0 0 2.94304 0 6.5688V38.6771C0 42.3028 2.94599 45.2459 6.5754 45.2459H38.7159C42.3387 45.2459 45.2913 42.3028 45.2913 38.6771V6.5688C45.2913 2.94304 42.3453 0 38.7159 0ZM31.6561 28.6747C30.8732 29.7419 29.9244 30.6367 28.8362 31.346C27.4163 32.2475 25.5784 32.7048 23.3622 32.7048C21.3916 32.7048 19.6399 32.2673 18.147 31.4056C16.674 30.5241 15.5063 29.3111 14.6835 27.8064C13.8608 26.2752 13.4427 24.5386 13.4427 22.6296C13.4427 21.1779 13.6949 19.8257 14.1925 18.5995C14.6901 17.3798 15.3868 16.2994 16.2693 15.4045C17.1717 14.5031 18.2267 13.8005 19.4143 13.3033C20.6219 12.8062 21.949 12.5543 23.3622 12.5543C25.5784 12.5543 27.4229 13.0183 28.8362 13.9397C29.9244 14.629 30.8732 15.5172 31.6561 16.5844C31.8419 16.8363 31.8884 17.1478 31.7888 17.4395C31.6827 17.751 31.4305 17.9896 31.1121 18.0824L30.1035 18.3807C29.6921 18.5 29.241 18.3608 28.9556 18.0162C28.2125 17.1213 27.4097 16.4916 26.5736 16.1469C25.5983 15.7161 24.5168 15.4973 23.3556 15.4973C22.0684 15.4973 20.894 15.8089 19.8655 16.4253C18.857 17.0418 18.0475 17.8902 17.4437 18.9574C16.8466 20.018 16.5413 21.2641 16.5413 22.6428C16.5413 24.0215 16.8466 25.2478 17.4437 26.3282C18.0409 27.3888 18.857 28.2439 19.8655 28.8603C20.894 29.4768 22.0618 29.7883 23.3556 29.7883C24.5168 29.7883 25.5983 29.5828 26.567 29.1719C27.403 28.8073 28.2059 28.171 28.949 27.2695C29.2343 26.9248 29.6855 26.779 30.0969 26.9049L31.1054 27.2032C31.4239 27.296 31.676 27.5413 31.7822 27.8462C31.8817 28.1378 31.8353 28.4494 31.6495 28.7012L31.6561 28.6747Z" fill="white"/>
<path d="M25.3529 67.2325C24.3443 66.7088 23.1964 66.4437 21.9424 66.4437H17.1519V80.2972H21.9159C23.1699 80.2972 24.3178 80.0519 25.3263 79.568C26.3481 79.0643 27.1775 78.302 27.7946 77.2945C28.4116 76.287 28.7235 74.9812 28.7235 73.4102C28.7235 71.8393 28.4116 70.6064 27.7946 69.5856C27.1974 68.5383 26.3747 67.7495 25.3529 67.2259V67.2325Z" fill="white"/>
<path d="M38.7159 50.7541H6.5754C2.94599 50.7541 0 53.6972 0 57.3229V89.4312C0 93.0503 2.94599 96 6.5754 96H38.7159C42.3387 96 45.2913 93.057 45.2913 89.4312V57.3229C45.2913 53.7038 42.3453 50.7541 38.7159 50.7541ZM30.5945 78.7461C29.7519 80.1779 28.5774 81.2981 27.1044 82.0603C25.6314 82.8027 23.9329 83.1805 22.0618 83.1805H15.3072C14.6437 83.1805 14.1063 82.6436 14.1063 81.9808V64.7733C14.1063 64.1105 14.6437 63.5736 15.3072 63.5736H22.0883C23.9594 63.5736 25.658 63.9713 27.131 64.7534C28.604 65.5356 29.7784 66.6823 30.6211 68.1538C31.4637 69.6055 31.8884 71.3753 31.8884 73.4168C31.8884 75.4584 31.4504 77.2878 30.5879 78.7395L30.5945 78.7461Z" fill="white"/>
<path d="M427.587 30.133H417.701C416.918 30.133 416.287 30.7627 416.287 31.5449V32.791C415.79 32.3535 415.265 31.9426 414.708 31.5714C412.3 29.9143 409.486 29.0857 406.275 29.0857C402.798 29.0857 399.719 29.9143 397.039 31.5714C394.365 33.2285 392.248 35.5286 390.696 38.4716C389.196 41.3616 388.446 44.6493 388.446 48.3414C388.446 52.0334 389.223 55.3211 390.775 58.2111C392.328 61.1012 394.471 63.3747 397.198 65.0318C399.925 66.6359 403.03 67.438 406.514 67.438C409.725 67.438 412.512 66.6889 414.867 65.1909C415.259 64.9457 415.63 64.6805 415.989 64.4021V66.4768C415.989 69.3138 415.265 71.4217 413.819 72.8137C412.426 74.2587 410.634 74.9812 408.438 74.9812C406.401 74.9812 404.716 74.5503 403.382 73.6952C402.334 72.9992 401.285 71.9254 400.237 70.4804C399.812 69.8971 399.036 69.685 398.392 70.0032L391.558 73.3903C390.855 73.735 390.57 74.5901 390.921 75.2861L391.007 75.465C392.182 77.9772 393.708 79.9591 395.586 81.4041C397.51 82.9022 399.573 83.9694 401.77 84.6123C404.019 85.2553 406.189 85.5734 408.272 85.5734C412.718 85.5734 416.46 84.6918 419.512 82.9287C422.617 81.2185 424.973 78.7329 426.578 75.4717C428.184 72.2105 428.987 68.2533 428.987 63.6001V31.5647C428.987 30.7826 428.35 30.1529 427.574 30.1529L427.587 30.133ZM414.463 53.8761C413.069 55.3211 411.304 56.0436 409.161 56.0436C407.018 56.0436 405.147 55.3211 403.7 53.8761C402.307 52.3781 401.61 50.5354 401.61 48.3414C401.61 46.0413 402.307 44.1721 403.7 42.7271C405.147 41.229 406.965 40.48 409.161 40.48C411.357 40.48 413.069 41.229 414.463 42.7271C415.909 44.1721 416.632 46.0413 416.632 48.3414C416.632 50.6414 415.909 52.3781 414.463 53.8761Z" fill="white"/>
<path d="M384.936 29.5629C384.658 29.4635 384.339 29.384 383.974 29.3309C383.277 29.1719 382.501 29.0923 381.645 29.0923C379.88 29.0923 378.168 29.5497 376.503 30.4578C374.897 31.3129 373.451 32.327 372.164 33.5069V31.5515C372.164 30.7693 371.533 30.1396 370.75 30.1396H362.098C361.315 30.1396 360.685 30.7693 360.685 31.5515V68.0345C360.685 68.8167 361.315 69.4464 362.098 69.4464H372.276C373.059 69.4464 373.69 68.8101 373.69 68.0345V44.1787C374.041 43.9136 374.413 43.6683 374.811 43.4562C376.901 42.336 379.602 41.7726 382.919 41.7726H384.153C384.936 41.7726 385.566 41.1429 385.566 40.3607V30.6301C385.566 30.1728 385.348 29.7286 384.916 29.5762L384.936 29.5629Z" fill="white"/>
<path d="M346.831 31.8166C343.726 30.0004 340.083 29.0923 335.909 29.0923C331.736 29.0923 328.173 30.0004 325.068 31.8166C321.962 33.5798 319.527 36.0124 317.762 39.1145C315.997 42.2167 315.115 45.8027 315.115 49.8659C315.115 53.9292 315.997 57.4356 317.762 60.5377C319.527 63.6399 321.962 66.0725 325.068 67.8357C328.173 69.5988 331.789 70.4804 335.909 70.4804C340.03 70.4804 343.726 69.5988 346.831 67.8357C349.989 66.0725 352.424 63.6399 354.136 60.5377C355.901 57.4356 356.783 53.8828 356.783 49.8659C356.783 45.8491 355.901 42.2167 354.136 39.1145C352.424 36.0124 349.989 33.5798 346.831 31.8166ZM341.45 55.6393C340.003 57.0843 338.159 57.8068 335.909 57.8068C333.66 57.8068 331.895 57.0578 330.449 55.5598C329.002 54.0617 328.279 52.1395 328.279 49.7864C328.279 47.4333 329.002 45.4514 330.449 44.013C331.895 42.515 333.713 41.7659 335.909 41.7659C338.106 41.7659 340.003 42.515 341.45 44.013C342.896 45.458 343.619 47.3802 343.619 49.7864C343.619 52.1925 342.896 54.1479 341.45 55.6393Z" fill="white"/>
<path d="M306.974 54.1148C305.686 53.3127 304.187 52.9084 302.475 52.9084C300.922 52.9084 299.476 53.3127 298.136 54.1148C296.795 54.9168 295.727 55.984 294.924 57.3229C294.175 58.6089 293.803 60.0472 293.803 61.658C293.803 63.2687 294.181 64.654 294.924 65.993C295.727 67.3319 296.795 68.3991 298.136 69.2011C299.476 70.0032 300.949 70.4075 302.555 70.4075C304.16 70.4075 305.686 70.0032 306.974 69.2011C308.314 68.3991 309.356 67.3319 310.105 65.993C310.908 64.654 311.313 63.209 311.313 61.658C311.313 60.1069 310.908 58.6089 310.105 57.3229C309.356 55.984 308.314 54.9168 306.974 54.1148Z" fill="white"/>
<path d="M279.723 31.8962C276.777 30.0269 273.247 29.0857 269.127 29.0857C265.006 29.0857 261.682 29.9938 258.69 31.81C255.744 33.5732 253.441 36.0058 251.783 39.1079C250.124 42.21 249.294 45.7629 249.294 49.7797C249.294 53.7966 250.124 57.5616 251.783 60.6107C253.441 63.6597 255.744 66.0128 258.69 67.67C261.689 69.3271 265.166 70.1556 269.127 70.1556C273.406 70.1556 277.155 69.2741 280.367 67.5109C283.14 65.9399 285.33 63.9183 286.949 61.4326C287.373 60.7764 287.115 59.908 286.425 59.5368L280.148 56.1696C279.497 55.8249 278.701 56.037 278.237 56.6004C277.474 57.535 276.578 58.3371 275.55 59.0066C274.209 59.8616 272.391 60.2925 270.089 60.2925C267.196 60.2925 264.947 59.57 263.341 58.125C262.12 56.9849 261.364 55.4869 261.072 53.6309H287.533C288.183 53.6309 288.747 53.1868 288.82 52.5438C288.84 52.3582 288.86 52.1594 288.873 51.9473C288.926 51.2513 288.953 50.4757 288.953 49.6207C288.953 45.8226 288.15 42.4023 286.544 39.3532C284.938 36.2511 282.662 33.7654 279.716 31.8895L279.723 31.8962ZM269.286 39.1146C272.073 39.1146 274.13 39.9166 275.47 41.5207C276.253 42.4619 276.804 43.5623 277.129 44.8084H261.244C261.596 43.4562 262.24 42.3028 263.188 41.3616C264.688 39.8636 266.718 39.1146 269.293 39.1146H269.286Z" fill="white"/>
<path d="M244.378 14.808H234.2C233.417 14.808 232.786 15.4377 232.786 16.2198V31.684C232.654 31.5912 232.521 31.4984 232.382 31.4123C229.867 29.8612 226.894 29.0857 223.471 29.0857C220.047 29.0857 216.862 29.9673 214.075 31.7304C211.342 33.4936 209.179 35.9528 207.573 39.1079C206.02 42.21 205.244 45.7629 205.244 49.7797C205.244 53.7966 206.02 57.2964 207.573 60.4516C209.125 63.6067 211.269 66.0659 213.996 67.829C216.729 69.5922 219.828 70.4738 223.311 70.4738C226.795 70.4738 229.628 69.6452 232.143 67.9881C232.587 67.6965 233.012 67.3783 233.43 67.0469V68.0146C233.43 68.7968 234.06 69.4265 234.843 69.4265H244.378C245.161 69.4265 245.791 68.7968 245.791 68.0146V16.2265C245.791 15.4443 245.161 14.8146 244.378 14.8146V14.808ZM231.254 55.7255C229.807 57.2235 228.016 57.9725 225.872 57.9725C223.729 57.9725 222.017 57.2235 220.571 55.7255C219.178 54.1744 218.481 52.1925 218.481 49.7864C218.481 47.3802 219.178 45.4845 220.571 43.9334C222.017 42.3294 223.782 41.5273 225.872 41.5273C227.963 41.5273 229.807 42.3294 231.254 43.9334C232.7 45.4845 233.423 47.4333 233.423 49.7864C233.423 52.1395 232.7 54.1744 231.254 55.7255Z" fill="white"/>
<path d="M191.781 31.8166C188.676 30.0004 185.033 29.0923 180.86 29.0923C176.686 29.0923 173.123 30.0004 170.018 31.8166C166.913 33.5798 164.478 36.0124 162.713 39.1145C160.948 42.2167 160.065 45.8027 160.065 49.8659C160.065 53.9292 160.948 57.4356 162.713 60.5377C164.478 63.6399 166.913 66.0725 170.018 67.8357C173.123 69.5988 176.739 70.4804 180.86 70.4804C184.98 70.4804 188.676 69.5988 191.781 67.8357C194.94 66.0725 197.375 63.6399 199.087 60.5377C200.851 57.4356 201.734 53.8828 201.734 49.8659C201.734 45.8491 200.851 42.2167 199.087 39.1145C197.375 36.0124 194.94 33.5798 191.781 31.8166ZM186.407 55.6393C184.96 57.0843 183.116 57.8068 180.867 57.8068C178.617 57.8068 176.852 57.0578 175.406 55.5598C173.959 54.0617 173.236 52.1395 173.236 49.7864C173.236 47.4333 173.959 45.4514 175.406 44.013C176.852 42.515 178.67 41.7659 180.867 41.7659C183.063 41.7659 184.96 42.515 186.407 44.013C187.853 45.458 188.577 47.3802 188.577 49.7864C188.577 52.1925 187.853 54.1479 186.407 55.6393Z" fill="white"/>
<path d="M139.802 41.7659C141.567 41.7659 142.987 42.1968 144.055 43.0518C144.811 43.6153 145.468 44.3577 146.039 45.2658C146.45 45.922 147.273 46.2401 147.983 45.922L157.146 41.7593C157.823 41.4544 158.155 40.6656 157.843 39.9895C156.423 36.8675 154.26 34.3288 151.367 32.3867C148.102 30.1926 144.194 29.0989 139.643 29.0989C135.628 29.0989 132.092 30.007 129.046 31.8232C126.047 33.5864 123.692 36.0191 121.98 39.1212C120.268 42.2233 119.412 45.7496 119.412 49.7068C119.412 53.664 120.268 57.303 121.98 60.4582C123.692 63.6133 126.047 66.0725 129.046 67.8357C132.098 69.5988 135.628 70.4804 139.643 70.4804C144.141 70.4804 148.023 69.3867 151.287 67.1927C154.227 65.2042 156.41 62.6456 157.843 59.5236C158.155 58.8408 157.816 58.0521 157.133 57.7471L147.963 53.7038C147.266 53.3989 146.457 53.7038 146.045 54.3467C145.475 55.2283 144.818 55.9575 144.062 56.5209C142.993 57.3229 141.573 57.7273 139.808 57.7273C137.718 57.7273 135.953 57.0313 134.507 55.6393C133.114 54.1943 132.417 52.219 132.417 49.7002C132.417 47.1814 133.114 45.3652 134.507 43.9268C135.953 42.4818 137.718 41.7593 139.808 41.7593L139.802 41.7659Z" fill="white"/>
</g>
<defs>
<clipPath id="clip0_7674_7359">
<rect width="429" height="96" fill="white"/>
</clipPath>
</defs>
</svg>
